<svg width="82" height="82" viewBox="0 0 82 82" fill="none" xmlns="http://www.w3.org/2000/svg">
<path d="M54.3496 32.7358L68.7031 19.8709C69.1965 20.0544 69.727 20.1598 70.2835 20.1598C70.2965 20.1598 70.3089 20.1578 70.3213 20.1578L78.2807 30.3847C78.8008 30.9534 79.4889 31.2547 80.1404 31.2547C80.5401 31.2547 80.9261 31.1409 81.2509 30.9053C81.6213 30.6365 82.7181 29.5615 81.2782 27.0191L78.6759 22.464C77.9703 21.0519 77.2315 19.6626 76.617 19.0731L74.5946 17.0512C74.7462 16.5983 74.8322 16.1155 74.8322 15.6118C74.8322 13.1046 72.7915 11.0645 70.2835 11.0645C70.0576 11.0645 69.837 11.0866 69.6202 11.1185L61.6438 0.87083C60.8035 -0.0466995 59.5264 -0.270551 58.673 0.349595C58.3026 0.618347 57.2058 1.69335 58.6457 4.23576L61.2461 8.78697C61.9179 10.1327 62.6899 11.5897 63.3069 12.1818L65.8273 14.7015C65.7668 14.9962 65.7355 15.3014 65.7355 15.6131C65.7355 15.6704 65.742 15.7257 65.744 15.7817L54.291 22.7204C53.3023 19.2429 50.4376 16.5469 46.8581 15.8175V15.6209C46.8581 15.578 46.8536 15.5357 46.8451 15.4934C46.5535 14.0358 45.2204 13.018 43.6035 13.018H38.3961C36.7793 13.018 35.4462 14.0358 35.1546 15.4934C35.1461 15.5357 35.1415 15.578 35.1415 15.6209V15.8175C31.5667 16.5463 28.7046 19.2377 27.7126 22.723L16.8675 16.1519C16.8871 15.9801 16.9001 15.8064 16.9001 15.6287C16.9001 15.1316 16.8168 14.654 16.6684 14.2056L18.6836 12.1909C19.3105 11.5897 20.0818 10.1327 20.7509 8.79022L23.3559 4.23315C24.7945 1.69335 23.6977 0.618347 23.3273 0.349595C22.4733 -0.271852 21.1962 -0.0466994 20.3233 0.910525L12.4081 11.0847C12.3892 11.0847 12.371 11.0821 12.3515 11.0821C9.84345 11.0821 7.80346 13.1221 7.80346 15.6294C7.80346 15.9483 7.83731 16.2587 7.8998 16.5593L5.3931 19.0653C4.76886 19.6639 4.03006 21.0539 3.32577 22.466L0.720776 27.023C-0.717762 29.5628 0.379042 30.6378 0.749416 30.9066C1.07097 31.1402 1.45306 31.2541 1.85013 31.2541C2.50821 31.2541 3.20925 30.9424 3.75342 30.3457L11.7051 20.1253C11.9166 20.1552 12.1308 20.1761 12.3508 20.1761C12.7388 20.1761 13.1143 20.122 13.4743 20.0303L27.6501 32.7358L28.342 48.6429L13.4743 61.9686C13.1143 61.8768 12.7394 61.8228 12.3508 61.8228C12.1308 61.8228 11.916 61.8436 11.7044 61.8742L3.72023 51.6141C2.87988 50.696 1.60343 50.4734 0.749416 51.0929C0.379042 51.3617 -0.717762 52.4367 0.722078 54.9791L3.32381 59.5329C4.02941 60.945 4.76821 62.3349 5.38333 62.9251L7.8998 65.4409C7.83731 65.7408 7.80346 66.0519 7.80346 66.3708C7.80346 68.878 9.8441 70.9181 12.3515 70.9181C12.3703 70.9181 12.3886 70.9155 12.4081 70.9155L20.3571 81.1293C20.8772 81.6981 21.5653 82 22.2168 82C22.6165 82 23.0025 81.8861 23.3273 81.6506C23.6977 81.3812 24.7945 80.3068 23.3546 77.7644L20.7542 73.2132C20.0825 71.8675 19.3105 70.4105 18.6934 69.8183L16.6684 67.7939C16.8168 67.3455 16.9001 66.8679 16.9001 66.3708C16.9001 66.1938 16.8871 66.02 16.8675 65.8476L29.3548 58.2809C30.436 60.3808 32.6212 61.8228 35.1415 61.8228H46.8581C49.3811 61.8228 51.5689 60.3769 52.6487 58.2828L65.1178 65.8378C65.0976 66.0128 65.084 66.1892 65.084 66.3694C65.084 66.8712 65.1686 67.3527 65.3196 67.8043L63.316 69.8073C62.6892 70.4085 61.9179 71.8655 61.2487 73.208L58.6437 77.765C57.2052 80.3048 58.302 81.3799 58.6724 81.6486C58.9939 81.8822 59.376 81.9961 59.7731 81.9961C60.4312 81.9961 61.1322 81.6844 61.6764 81.0877L69.5916 70.9142C69.6053 70.9142 69.6183 70.9161 69.6319 70.9161C72.1406 70.9161 74.1806 68.8761 74.1806 66.3688C74.1806 65.8703 74.0973 65.3914 73.9482 64.9424L75.9491 62.9421C76.5734 62.3434 77.3122 60.9534 78.0165 59.5413L80.6215 54.9843C82.06 52.4445 80.9632 51.3695 80.5928 51.1007C79.7388 50.4793 78.4617 50.7044 77.5888 51.6616L69.6821 61.8247C69.6651 61.8247 69.6489 61.8221 69.6326 61.8221C69.2492 61.8221 68.8782 61.8749 68.5221 61.9647L53.6583 48.6436L54.3496 32.7358ZM75.7057 20.0036C76.2538 20.5294 77.167 22.3579 77.5107 23.0464C77.5159 23.0575 77.5374 23.1004 77.5439 23.1108L80.1463 27.664C80.8213 28.8561 80.8037 29.6227 80.4854 29.8537C80.214 30.0502 79.6503 29.9559 79.2734 29.5472L71.7722 19.9053C72.6626 19.5956 73.4262 19.0184 73.9684 18.2681L75.7057 20.0036ZM73.5303 15.6131C73.5303 17.4026 72.0742 18.859 70.2835 18.859C68.4935 18.859 67.0374 17.4033 67.0374 15.6131C67.0374 13.823 68.4928 12.3673 70.2829 12.3673C72.0736 12.3673 73.5303 13.823 73.5303 15.6131ZM64.2176 11.2519C63.6688 10.7255 62.755 8.89499 62.4113 8.20586C62.4054 8.1948 62.3859 8.15576 62.3794 8.14535L59.777 3.59218C59.102 2.40005 59.1202 1.63349 59.4379 1.40248C59.7054 1.20596 60.271 1.29901 60.6492 1.70897L68.291 11.5311C67.4689 11.9339 66.7855 12.5749 66.3331 13.3668L64.2176 11.2519ZM66.0063 17.1443C66.3012 17.9649 66.8239 18.6755 67.4995 19.2013L54.4284 30.9164L54.6692 25.3819C54.6692 24.9368 54.6288 24.5021 54.5709 24.0726L66.0063 17.1443ZM38.3961 14.3195H43.6035C44.4113 14.3195 45.3057 14.7346 45.5433 15.6535C45.3317 15.6392 45.1208 15.6209 44.9054 15.6209H37.0943C36.8788 15.6209 36.668 15.6392 36.4564 15.6535C36.694 14.7346 37.5884 14.3195 38.3961 14.3195ZM21.3166 1.74867C21.728 1.29966 22.293 1.20661 22.5618 1.40248C22.8795 1.63284 22.8983 2.40005 22.224 3.58958L19.6203 8.1447C19.6138 8.15511 19.5943 8.19415 19.5884 8.20521C19.2447 8.89434 18.3302 10.7255 17.7723 11.261L16.0461 12.9868C15.5065 12.2345 14.7442 11.6547 13.8551 11.3424L21.3166 1.74867ZM2.75946 29.5069C2.34743 29.9559 1.78243 30.0489 1.51425 29.8531C1.1966 29.6227 1.17772 28.8555 1.85208 27.666L4.45577 23.1108C4.46228 23.1004 4.48376 23.0575 4.48896 23.0464C4.83265 22.3579 5.74655 20.5294 6.30373 19.9945L8.41012 17.8887C8.86511 18.6787 9.54988 19.3177 10.3733 19.7173L2.75946 29.5069ZM9.10465 15.6287C9.10465 13.8392 10.5608 12.3829 12.3508 12.3829C14.1415 12.3829 15.5976 13.8386 15.5976 15.6287C15.5976 17.4189 14.1415 18.8746 12.3508 18.8746C10.5608 18.8746 9.10465 17.4189 9.10465 15.6287ZM14.7898 19.4609C15.5442 18.9794 16.1476 18.2844 16.5121 17.4586L27.432 24.0752C27.3721 24.5132 27.3305 24.9563 27.3311 25.4105L27.5707 30.9164L14.7898 19.4609ZM6.29397 61.9952C5.74589 61.4688 4.83265 59.6396 4.48831 58.9511C4.48311 58.9401 4.46228 58.8984 4.45577 58.888L1.85338 54.3348C1.17837 53.1427 1.1966 52.3761 1.51425 52.1451C1.78178 51.9499 2.34743 52.0423 2.72562 52.4523L10.3726 62.2816C9.54923 62.6818 8.86446 63.3201 8.40947 64.1101L6.29397 61.9952ZM9.10465 66.3701C9.10465 64.5806 10.5608 63.1243 12.3508 63.1243C14.1415 63.1243 15.5976 64.5799 15.5976 66.3701C15.5976 68.1603 14.1415 69.6159 12.3508 69.6159C10.5608 69.6159 9.10465 68.1596 9.10465 66.3701ZM17.7821 70.7469C18.3308 71.2734 19.2447 73.1039 19.5884 73.793C19.5943 73.804 19.6138 73.8431 19.6203 73.8535L22.2227 78.4067C22.8977 79.5988 22.8795 80.3654 22.5618 80.5964C22.293 80.7909 21.7286 80.6992 21.3505 80.2899L13.8557 70.6565C14.7449 70.3435 15.5071 69.7643 16.0467 69.0121L17.7821 70.7469ZM16.5121 64.5402C16.1476 63.7145 15.5442 63.0195 14.7898 62.5379L28.4149 50.3257L28.6323 55.3155C28.6323 55.9168 28.7208 56.4972 28.8745 57.0503L16.5121 64.5402ZM35.935 60.5213L36.4232 58.0765C36.6354 57.2306 37.4647 56.617 38.3961 56.617H43.6035C44.535 56.617 45.3643 57.2306 45.5693 58.046L46.064 60.5213H35.935ZM47.386 60.4947L46.838 57.7603C46.4845 56.3436 45.1234 55.3155 43.6035 55.3155H38.3961C36.8762 55.3155 35.5152 56.3436 35.1546 57.7909L34.6136 60.4947C31.9898 60.2292 29.9342 58.0063 29.9342 55.2875L28.9383 32.3994C28.9383 32.3987 28.9383 32.3974 28.9383 32.3968L28.6323 25.3819C28.6323 24.8535 28.687 24.3375 28.7807 23.8358C28.7807 23.8351 28.7807 23.8351 28.7807 23.8345C29.5111 19.9073 32.9577 16.9224 37.0943 16.9224H44.9054C49.0426 16.9224 52.4899 19.9086 53.2196 23.8169C53.2209 23.8293 53.2228 23.8403 53.2248 23.8527C53.314 24.3407 53.3674 24.8411 53.3674 25.3539L52.0655 55.3155C52.0655 58.0076 50.0105 60.2292 47.386 60.4947ZM60.6831 80.2502C60.271 80.6992 59.7054 80.7916 59.4379 80.5964C59.1202 80.366 59.1013 79.5988 59.7757 78.4093L62.3794 73.8542C62.3859 73.8437 62.4054 73.8047 62.4113 73.7936C62.755 73.1045 63.6695 71.2734 64.2273 70.7378L65.9445 69.0212C66.4867 69.7728 67.2502 70.3506 68.1413 70.661L60.6831 80.2502ZM69.6319 69.6159C67.8419 69.6159 66.3858 68.1603 66.3858 66.3701C66.3858 64.5799 67.8419 63.1243 69.6319 63.1243C71.4226 63.1243 72.8787 64.5799 72.8787 66.3701C72.8787 68.1603 71.4226 69.6159 69.6319 69.6159ZM78.5821 52.5011C78.9935 52.0514 79.5585 51.959 79.8273 52.1549C80.145 52.3853 80.1639 53.1525 79.4895 54.342L76.8858 58.8971C76.8793 58.9075 76.8578 58.9505 76.8526 58.9615C76.5089 59.65 75.595 61.4786 75.0379 62.0135L73.3253 63.7255C72.7844 62.9726 72.0208 62.3935 71.1304 62.0811L78.5821 52.5011ZM67.2034 62.5321C66.447 63.0123 65.8416 63.7073 65.4752 64.5331L53.1285 57.0523C53.2795 56.5063 53.3667 55.9356 53.3667 55.3441L53.5848 50.3263L67.2034 62.5321Z" fill="#02E602"/>
</svg>
